<?xml version="1.0" encoding="UTF-8" standalone="no"?><!DOCTYPE svg PUBLIC "-//W3C//DTD SVG 1.1//EN" "http://www.w3.org/Graphics/SVG/1.1/DTD/svg11.dtd"><svg width="100%" height="100%" viewBox="0 0 1000 1000" version="1.1" xmlns="http://www.w3.org/2000/svg" xmlns:xlink="http://www.w3.org/1999/xlink" xml:space="preserve" xmlns:serif="http://www.serif.com/" style="fill-rule:evenodd;clip-rule:evenodd;stroke-linejoin:round;stroke-miterlimit:2;"><g><path d="M362.215,467.801c-0.113,-3.016 -0.232,-6.089 -0.357,-9.219c-1.245,-31.058 -2.892,-65.817 -4.942,-104.275c-1.185,-22.234 -2.412,-45.008 -3.682,-68.322c11.421,25.689 21.749,48.938 30.984,69.745c15.108,34.021 29.653,65.004 43.636,92.948c0.365,0.73 0.731,1.46 1.098,2.191c-9.671,13.952 -15.34,30.884 -15.34,49.13c0,47.679 38.709,86.387 86.387,86.387c0.693,0 1.384,-0.008 2.073,-0.024l194.357,346.047l-75.323,0l-222.926,-396.914c-12.724,-23.16 -24.713,-45.725 -35.966,-67.695Zm134.96,-54.143l-194.087,-346.068l75.323,0l245.531,437.797c4.393,7.903 8.814,16.037 13.265,24.402c0.309,11.691 0.721,24.211 1.237,37.557c1.288,33.374 2.955,68.175 4.999,104.402c0.864,15.275 1.758,30.196 2.681,44.762c-6.624,-17.88 -13.242,-34.763 -19.855,-50.648c-13.368,-32.11 -26.53,-61.267 -39.485,-87.471c-5.098,-10.311 -10.16,-20.334 -15.186,-30.066c9.335,-13.796 14.789,-30.429 14.789,-48.326c0,-47.679 -38.709,-86.387 -86.387,-86.387c-0.945,0 -1.887,0.015 -2.825,0.045Zm-134.96,54.143c1.007,26.914 1.51,49.304 1.51,67.169l0,397.44l-75.323,0l0,-397.44c0,-19.867 -0.622,-45.33 -1.867,-76.388c-1.245,-31.058 -2.892,-65.817 -4.942,-104.275c-1.185,-22.234 -2.412,-45.008 -3.682,-68.322c11.421,25.689 21.749,48.938 30.984,69.745c15.108,34.021 29.653,65.004 43.636,92.948c3.165,6.323 6.393,12.697 9.684,19.122Zm274.993,61.988c-0.464,-17.543 -0.696,-33.223 -0.696,-47.038l0,-415.161l75.323,0l0,415.161c0,23.023 0.644,51.222 1.933,84.596c1.288,33.374 2.955,68.175 4.999,104.402c0.864,15.275 1.758,30.196 2.681,44.762c-6.624,-17.88 -13.242,-34.763 -19.855,-50.648c-13.368,-32.11 -26.53,-61.267 -39.485,-87.471c-8.398,-16.986 -16.698,-33.187 -24.9,-48.603Zm-436.578,402.621l-75.323,0l0,-864.821l75.323,0l0,864.821Zm598.74,-864.821l75.323,0l0,864.821l-75.323,0l0,-864.821Z" style="fill:#fff;"/><g><path d="M468.905,499.801l27.879,0c7.029,0 12.673,-1.143 16.933,-3.428c4.259,-2.286 7.372,-5.532 9.338,-9.739c1.966,-4.207 2.949,-9.192 2.949,-14.956c0,-5.896 -0.983,-11.014 -2.949,-15.353c-1.966,-4.339 -5.093,-7.718 -9.382,-10.136c-4.289,-2.418 -9.978,-3.627 -17.067,-3.627l-27.7,0l0,57.239Z" style="fill:#fff;"/><path d="M451.927,551.19c-11.455,-13.3 -18.496,-31.338 -18.496,-51.19c0,-19.853 7.042,-37.89 18.496,-51.19l0,102.381Z" style="fill:#fff;"/><path d="M525.661,568.324c-7.899,3.677 -16.568,5.709 -25.661,5.709c-11.229,0 -21.812,-3.099 -31.095,-8.568l0,-48.869l28.683,0c1.049,0 2.079,-0.02 3.09,-0.059l24.983,51.787Z" style="fill:#fff;"/><path d="M498.836,425.978c0.387,-0.007 0.775,-0.011 1.164,-0.011c36.741,0 66.569,33.173 66.569,74.033c0,23.893 -10.2,45.158 -26.017,58.698l-22.311,-45.489c1.732,-0.675 3.366,-1.451 4.902,-2.328c6.672,-3.809 11.631,-9.093 14.878,-15.85c3.247,-6.757 4.87,-14.542 4.87,-23.353c0,-8.811 -1.623,-16.661 -4.87,-23.551c-3.247,-6.89 -8.221,-12.306 -14.922,-16.247c-6.411,-3.771 -14.498,-5.738 -24.262,-5.902Z" style="fill:#fff;"/></g></g></svg>